<svg width="59" height="19" viewBox="0 0 59 19" fill="none" xmlns="http://www.w3.org/2000/svg">
<path opacity="0.9" d="M5.97156 11.38C5.97156 12.7267 5.85156 13.84 5.61156 14.72C5.3849 15.6133 4.93156 16.4067 4.25156 17.1C3.57156 17.7933 2.57823 18.42 1.27156 18.98C0.964896 18.7667 0.778229 18.4133 0.711562 17.92C1.23156 17.5333 1.6449 17.1333 1.95156 16.72C2.27156 16.3067 2.51156 15.8 2.67156 15.2C2.83156 14.6133 2.91156 13.88 2.91156 13V3.7C2.91156 3.14 2.87156 2.72667 2.79156 2.46C2.7249 2.18 2.59823 1.98667 2.41156 1.88C2.2249 1.77333 1.9449 1.7 1.57156 1.66C1.47823 1.36667 1.43156 0.953332 1.43156 0.42C1.91156 0.459999 2.91156 0.479999 4.43156 0.479999C5.9649 0.479999 6.97156 0.459999 7.45156 0.42C7.45156 0.939999 7.39823 1.35333 7.29156 1.66C6.91823 1.7 6.63823 1.78 6.45156 1.9C6.2649 2.02 6.13823 2.22 6.07156 2.5C6.0049 2.76667 5.97156 3.16667 5.97156 3.7V11.38ZM20.3963 12.8C20.4763 13.04 20.5163 13.4533 20.5163 14.04C20.1163 14.0133 19.2763 14 17.9963 14C16.5429 14 15.6229 14.0133 15.2363 14.04C15.2363 13.5333 15.2763 13.12 15.3563 12.8C15.6363 12.7333 15.8429 12.6533 15.9763 12.56C16.1096 12.4667 16.1763 12.34 16.1763 12.18C16.1763 12.0333 16.1296 11.8667 16.0363 11.68L15.8163 11.22C14.0429 11.22 12.6363 11.28 11.5963 11.4L11.5763 11.46C11.4829 11.6467 11.4363 11.8333 11.4363 12.02C11.4363 12.46 11.7096 12.72 12.2563 12.8C12.3363 13.12 12.3763 13.5333 12.3763 14.04C11.8696 14.0133 11.2296 14 10.4563 14C9.64292 14 9.12292 14.0133 8.89625 14.04C8.89625 13.5867 8.94292 13.1667 9.03625 12.78C9.31625 12.74 9.54292 12.6267 9.71625 12.44C9.88958 12.2533 10.1163 11.88 10.3963 11.32L13.9763 4C14.1629 3.96 14.3496 3.93333 14.5363 3.92C14.7229 3.90667 14.9296 3.9 15.1563 3.9L19.1563 11.5C19.4229 12.02 19.6363 12.36 19.7963 12.52C19.9696 12.68 20.1696 12.7733 20.3963 12.8ZM15.3363 10.2L14.4763 8.38L14.2963 7.98C14.0429 7.48667 13.8496 7.04 13.7163 6.64C13.6229 6.93333 13.4496 7.36 13.1963 7.92L12.9963 8.34L12.1563 10.2H15.3363ZM27.9617 9.64C28.4684 9.64 28.8951 9.46667 29.2417 9.12C29.5884 8.76 29.7617 8.22 29.7617 7.5C29.7617 6.82 29.5751 6.27333 29.2017 5.86C28.8284 5.43333 28.2751 5.22 27.5417 5.22C27.3017 5.22 27.0417 5.26 26.7617 5.34V10.96C26.7617 11.6 26.8884 12.0533 27.1417 12.32C27.4084 12.5867 27.8817 12.7467 28.5617 12.8C28.6551 13.0667 28.7017 13.48 28.7017 14.04C27.8751 14.0133 26.8751 14 25.7017 14C24.5017 14 23.4351 14.0133 22.5017 14.04C22.5017 13.4667 22.5351 13.0533 22.6017 12.8C22.9351 12.7733 23.1817 12.7133 23.3417 12.62C23.5151 12.5267 23.6351 12.3667 23.7017 12.14C23.7684 11.9133 23.8017 11.56 23.8017 11.08V6.88C23.8017 6.41333 23.7684 6.07333 23.7017 5.86C23.6484 5.63333 23.5417 5.48 23.3817 5.4C23.2351 5.30667 22.9884 5.24 22.6417 5.2C22.5484 4.90667 22.5017 4.49333 22.5017 3.96L24.0217 3.98C24.3284 3.99333 24.7684 4 25.3417 4C25.9151 4 26.3684 3.99333 26.7017 3.98L28.6817 3.96C30.0551 3.96 31.0551 4.26667 31.6817 4.88C32.3084 5.48 32.6217 6.27333 32.6217 7.26C32.6217 7.95333 32.4551 8.58 32.1217 9.14C31.8017 9.68667 31.3284 10.12 30.7017 10.44C30.0751 10.76 29.3417 10.92 28.5017 10.92C27.9951 10.92 27.5951 10.8733 27.3017 10.78C27.2751 10.6733 27.2617 10.5267 27.2617 10.34C27.2617 10.0467 27.3084 9.80667 27.4017 9.62C27.5084 9.64667 27.6151 9.66 27.7217 9.66C27.8417 9.64667 27.9217 9.64 27.9617 9.64ZM45.2205 12.8C45.3005 13.04 45.3405 13.4533 45.3405 14.04C44.9405 14.0133 44.1005 14 42.8205 14C41.3671 14 40.4471 14.0133 40.0605 14.04C40.0605 13.5333 40.1005 13.12 40.1805 12.8C40.4605 12.7333 40.6671 12.6533 40.8005 12.56C40.9338 12.4667 41.0005 12.34 41.0005 12.18C41.0005 12.0333 40.9538 11.8667 40.8605 11.68L40.6405 11.22C38.8671 11.22 37.4605 11.28 36.4205 11.4L36.4005 11.46C36.3071 11.6467 36.2605 11.8333 36.2605 12.02C36.2605 12.46 36.5338 12.72 37.0805 12.8C37.1605 13.12 37.2005 13.5333 37.2005 14.04C36.6938 14.0133 36.0538 14 35.2805 14C34.4671 14 33.9471 14.0133 33.7205 14.04C33.7205 13.5867 33.7671 13.1667 33.8605 12.78C34.1405 12.74 34.3671 12.6267 34.5405 12.44C34.7138 12.2533 34.9405 11.88 35.2205 11.32L38.8005 4C38.9871 3.96 39.1738 3.93333 39.3605 3.92C39.5471 3.90667 39.7538 3.9 39.9805 3.9L43.9805 11.5C44.2471 12.02 44.4605 12.36 44.6205 12.52C44.7938 12.68 44.9938 12.7733 45.2205 12.8ZM40.1605 10.2L39.3005 8.38L39.1205 7.98C38.8671 7.48667 38.6738 7.04 38.5405 6.64C38.4471 6.93333 38.2738 7.36 38.0205 7.92L37.8205 8.34L36.9805 10.2H40.1605ZM57.1259 4C57.7393 4 58.3393 3.98667 58.9259 3.96C58.9259 4.50667 58.8926 4.92 58.8259 5.2C58.5059 5.25333 58.2726 5.33333 58.1259 5.44C57.9793 5.54667 57.8726 5.74 57.8059 6.02C57.7526 6.28667 57.7259 6.72 57.7259 7.32V13.98C57.4326 14.0867 56.9859 14.14 56.3859 14.14L49.9859 7V10.68C49.9859 11.2533 50.0193 11.68 50.0859 11.96C50.1659 12.24 50.2993 12.44 50.4859 12.56C50.6726 12.6667 50.9526 12.7467 51.3259 12.8C51.4059 13.0933 51.4459 13.5067 51.4459 14.04C50.7793 14.0133 50.1126 14 49.4459 14C48.5926 14 47.8859 14.0133 47.3259 14.04C47.3259 13.5067 47.3659 13.0933 47.4459 12.8C47.8193 12.7467 48.0993 12.6667 48.2859 12.56C48.4726 12.44 48.6059 12.24 48.6859 11.96C48.7659 11.68 48.8059 11.2533 48.8059 10.68V5.68L48.7259 5.6C48.6059 5.46667 48.4593 5.37333 48.2859 5.32C48.1259 5.26667 47.8459 5.22667 47.4459 5.2C47.3659 4.90667 47.3259 4.49333 47.3259 3.96C47.8859 3.98667 48.5593 4 49.3459 4C50.2259 4 50.8059 3.98667 51.0859 3.96L56.5459 10.2V7.32C56.5459 6.73333 56.5059 6.30667 56.4259 6.04C56.3593 5.76 56.2259 5.56667 56.0259 5.46C55.8393 5.34 55.5393 5.25333 55.1259 5.2C55.0459 4.93333 55.0059 4.52 55.0059 3.96C55.6726 3.98667 56.3793 4 57.1259 4Z" fill="url(#paint0_radial)"/>
<defs>
<radialGradient id="paint0_radial" cx="0" cy="0" r="1" gradientUnits="userSpaceOnUse" gradientTransform="translate(57.5 20.5) rotate(179.493) scale(56.5022 90.4035)">
<stop stop-color="#2C28DF"/>
<stop offset="0.587064" stop-color="#5F28DF" stop-opacity="0.90625"/>
<stop offset="1" stop-color="#8F28DF" stop-opacity="0.82"/>
</radialGradient>
</defs>
</svg>
